<mxfile host="app.diagrams.net" agent="Mozilla/5.0 (Windows NT 10.0; Win64; x64) AppleWebKit/537.36 (KHTML, like Gecko) Chrome/138.0.0.0 Safari/537.36" version="28.0.7">
  <diagram name="Trang-1" id="SkHcOwN8IgdCpiT-_uyP">
    <mxGraphModel dx="2316" dy="1989" grid="1" gridSize="10" guides="1" tooltips="1" connect="1" arrows="1" fold="1" page="1" pageScale="1" pageWidth="827" pageHeight="1169" math="0" shadow="0">
      <root>
        <mxCell id="0" />
        <mxCell id="1" parent="0" />
        <mxCell id="6zkKeThLbnUgTpRzeCHB-32" value="" style="whiteSpace=wrap;html=1;aspect=fixed;" vertex="1" parent="1">
          <mxGeometry y="-120" width="490" height="490" as="geometry" />
        </mxCell>
        <mxCell id="6zkKeThLbnUgTpRzeCHB-9" style="edgeStyle=orthogonalEdgeStyle;rounded=0;orthogonalLoop=1;jettySize=auto;html=1;entryX=0;entryY=0.5;entryDx=0;entryDy=0;endArrow=none;endFill=0;" edge="1" parent="1" source="6zkKeThLbnUgTpRzeCHB-2" target="6zkKeThLbnUgTpRzeCHB-8">
          <mxGeometry relative="1" as="geometry" />
        </mxCell>
        <mxCell id="6zkKeThLbnUgTpRzeCHB-16" style="edgeStyle=orthogonalEdgeStyle;rounded=0;orthogonalLoop=1;jettySize=auto;html=1;entryX=0;entryY=0.5;entryDx=0;entryDy=0;endArrow=none;endFill=0;" edge="1" parent="1" source="6zkKeThLbnUgTpRzeCHB-2" target="6zkKeThLbnUgTpRzeCHB-11">
          <mxGeometry relative="1" as="geometry" />
        </mxCell>
        <mxCell id="6zkKeThLbnUgTpRzeCHB-17" style="edgeStyle=orthogonalEdgeStyle;rounded=0;orthogonalLoop=1;jettySize=auto;html=1;entryX=0;entryY=0.5;entryDx=0;entryDy=0;endArrow=none;endFill=0;" edge="1" parent="1" source="6zkKeThLbnUgTpRzeCHB-2" target="6zkKeThLbnUgTpRzeCHB-15">
          <mxGeometry relative="1" as="geometry" />
        </mxCell>
        <mxCell id="6zkKeThLbnUgTpRzeCHB-2" value="Người dùng" style="shape=umlActor;verticalLabelPosition=bottom;verticalAlign=top;html=1;outlineConnect=0;" vertex="1" parent="1">
          <mxGeometry x="-70" y="60" width="30" height="60" as="geometry" />
        </mxCell>
        <mxCell id="6zkKeThLbnUgTpRzeCHB-14" value="&amp;lt;&amp;lt;include&amp;gt;&amp;gt;" style="edgeStyle=orthogonalEdgeStyle;rounded=0;orthogonalLoop=1;jettySize=auto;html=1;entryX=0.5;entryY=1;entryDx=0;entryDy=0;dashed=1;endArrow=open;endFill=0;" edge="1" parent="1" source="6zkKeThLbnUgTpRzeCHB-8" target="6zkKeThLbnUgTpRzeCHB-11">
          <mxGeometry x="0.1429" y="40" relative="1" as="geometry">
            <mxPoint as="offset" />
          </mxGeometry>
        </mxCell>
        <mxCell id="6zkKeThLbnUgTpRzeCHB-8" value="Đặt Lịch Tiêm" style="ellipse;whiteSpace=wrap;html=1;" vertex="1" parent="1">
          <mxGeometry x="70" y="50" width="120" height="80" as="geometry" />
        </mxCell>
        <mxCell id="6zkKeThLbnUgTpRzeCHB-11" value="Xem lịch" style="ellipse;whiteSpace=wrap;html=1;" vertex="1" parent="1">
          <mxGeometry x="70" y="-100" width="120" height="80" as="geometry" />
        </mxCell>
        <mxCell id="6zkKeThLbnUgTpRzeCHB-18" value="&amp;lt;&amp;lt;include&amp;gt;&amp;gt;" style="edgeStyle=orthogonalEdgeStyle;rounded=0;orthogonalLoop=1;jettySize=auto;html=1;entryX=0.5;entryY=1;entryDx=0;entryDy=0;endArrow=open;endFill=0;dashed=1;" edge="1" parent="1" source="6zkKeThLbnUgTpRzeCHB-15" target="6zkKeThLbnUgTpRzeCHB-8">
          <mxGeometry x="-0.1429" y="-40" relative="1" as="geometry">
            <Array as="points">
              <mxPoint x="130" y="160" />
              <mxPoint x="130" y="160" />
            </Array>
            <mxPoint as="offset" />
          </mxGeometry>
        </mxCell>
        <mxCell id="6zkKeThLbnUgTpRzeCHB-15" value="Thanh toán" style="ellipse;whiteSpace=wrap;html=1;" vertex="1" parent="1">
          <mxGeometry x="70" y="200" width="120" height="80" as="geometry" />
        </mxCell>
        <mxCell id="6zkKeThLbnUgTpRzeCHB-20" value="generalization" style="rounded=0;orthogonalLoop=1;jettySize=auto;html=1;entryX=1;entryY=0.5;entryDx=0;entryDy=0;endArrow=block;endFill=0;" edge="1" parent="1" source="6zkKeThLbnUgTpRzeCHB-19" target="6zkKeThLbnUgTpRzeCHB-15">
          <mxGeometry x="-0.0667" y="20" relative="1" as="geometry">
            <mxPoint as="offset" />
          </mxGeometry>
        </mxCell>
        <mxCell id="6zkKeThLbnUgTpRzeCHB-19" value="Thanh Toán Online" style="ellipse;whiteSpace=wrap;html=1;" vertex="1" parent="1">
          <mxGeometry x="270" y="130" width="120" height="80" as="geometry" />
        </mxCell>
        <mxCell id="6zkKeThLbnUgTpRzeCHB-31" value="&amp;lt;&amp;lt;include&amp;gt;&amp;gt;" style="edgeStyle=orthogonalEdgeStyle;rounded=0;orthogonalLoop=1;jettySize=auto;html=1;entryX=0.5;entryY=1;entryDx=0;entryDy=0;dashed=1;endArrow=open;endFill=0;" edge="1" parent="1" source="6zkKeThLbnUgTpRzeCHB-21" target="6zkKeThLbnUgTpRzeCHB-19">
          <mxGeometry relative="1" as="geometry" />
        </mxCell>
        <mxCell id="6zkKeThLbnUgTpRzeCHB-21" value="Gửi hóa đơn" style="ellipse;whiteSpace=wrap;html=1;" vertex="1" parent="1">
          <mxGeometry x="270" y="260" width="120" height="80" as="geometry" />
        </mxCell>
        <mxCell id="6zkKeThLbnUgTpRzeCHB-24" style="edgeStyle=orthogonalEdgeStyle;rounded=0;orthogonalLoop=1;jettySize=auto;html=1;entryX=1;entryY=0.5;entryDx=0;entryDy=0;endArrow=none;endFill=0;" edge="1" parent="1" source="6zkKeThLbnUgTpRzeCHB-23" target="6zkKeThLbnUgTpRzeCHB-21">
          <mxGeometry relative="1" as="geometry" />
        </mxCell>
        <mxCell id="6zkKeThLbnUgTpRzeCHB-23" value="&amp;lt;&amp;lt;Hệ Thống&amp;gt;&amp;gt;&lt;div&gt;Thông báo&lt;/div&gt;" style="shape=umlActor;verticalLabelPosition=bottom;verticalAlign=top;html=1;outlineConnect=0;" vertex="1" parent="1">
          <mxGeometry x="520" y="270" width="30" height="60" as="geometry" />
        </mxCell>
        <mxCell id="6zkKeThLbnUgTpRzeCHB-27" value="&amp;lt;&amp;lt;include&amp;gt;&amp;gt;" style="rounded=0;orthogonalLoop=1;jettySize=auto;html=1;entryX=1;entryY=0;entryDx=0;entryDy=0;exitX=0;exitY=0.5;exitDx=0;exitDy=0;endArrow=open;endFill=0;dashed=1;" edge="1" parent="1" source="6zkKeThLbnUgTpRzeCHB-26" target="6zkKeThLbnUgTpRzeCHB-8">
          <mxGeometry x="0.0449" y="-19" relative="1" as="geometry">
            <mxPoint x="280" y="20" as="sourcePoint" />
            <mxPoint as="offset" />
          </mxGeometry>
        </mxCell>
        <mxCell id="6zkKeThLbnUgTpRzeCHB-26" value="Thực hiện Tiêm" style="ellipse;whiteSpace=wrap;html=1;" vertex="1" parent="1">
          <mxGeometry x="270" y="-30" width="120" height="80" as="geometry" />
        </mxCell>
        <mxCell id="6zkKeThLbnUgTpRzeCHB-29" style="edgeStyle=orthogonalEdgeStyle;rounded=0;orthogonalLoop=1;jettySize=auto;html=1;entryX=1;entryY=0.5;entryDx=0;entryDy=0;" edge="1" parent="1" source="6zkKeThLbnUgTpRzeCHB-28" target="6zkKeThLbnUgTpRzeCHB-26">
          <mxGeometry relative="1" as="geometry" />
        </mxCell>
        <mxCell id="6zkKeThLbnUgTpRzeCHB-28" value="Bac Si" style="shape=umlActor;verticalLabelPosition=bottom;verticalAlign=top;html=1;outlineConnect=0;" vertex="1" parent="1">
          <mxGeometry x="520" y="-20" width="30" height="60" as="geometry" />
        </mxCell>
      </root>
    </mxGraphModel>
  </diagram>
</mxfile>
